<?xml version="1.0" encoding="UTF-8" standalone="no"?>
<!-- Generator: Adobe Illustrator 19.0.0, SVG Export Plug-In . SVG Version: 6.00 Build 0)  -->

<svg
   xmlns:dc="http://purl.org/dc/elements/1.1/"
   xmlns:cc="http://creativecommons.org/ns#"
   xmlns:rdf="http://www.w3.org/1999/02/22-rdf-syntax-ns#"
   xmlns:svg="http://www.w3.org/2000/svg"
   xmlns="http://www.w3.org/2000/svg"
   xmlns:sodipodi="http://sodipodi.sourceforge.net/DTD/sodipodi-0.dtd"
   xmlns:inkscape="http://www.inkscape.org/namespaces/inkscape"
   version="1.1"
   id="Layer_1"
   x="0px"
   y="0px"
   viewBox="0 0 205 114"
   xml:space="preserve"
   inkscape:version="0.91 r13725"
   sodipodi:docname="aeriscloud.svg"
   width="205"
   height="114"><metadata
     id="metadata17"><rdf:RDF><cc:Work
         rdf:about=""><dc:format>image/svg+xml</dc:format><dc:type
           rdf:resource="http://purl.org/dc/dcmitype/StillImage" /><dc:title></dc:title></cc:Work></rdf:RDF></metadata><defs
     id="defs15" /><sodipodi:namedview
     pagecolor="#ffffff"
     bordercolor="#666666"
     borderopacity="1"
     objecttolerance="10"
     gridtolerance="10"
     guidetolerance="10"
     inkscape:pageopacity="0"
     inkscape:pageshadow="2"
     inkscape:window-width="1920"
     inkscape:window-height="1128"
     id="namedview13"
     showgrid="false"
     inkscape:zoom="1"
     inkscape:cx="-167.08785"
     inkscape:cy="50.049007"
     inkscape:window-x="0"
     inkscape:window-y="25"
     inkscape:window-maximized="1"
     inkscape:current-layer="Layer_1"
     fit-margin-bottom="5"
     fit-margin-top="5"
     fit-margin-right="5"
     fit-margin-left="5" /><style
     type="text/css"
     id="style3">
	.st0{fill:#1C75BC;}
	.st1{fill:#FFFFFF;}
</style><g
     id="g5"
     transform="matrix(2,0,0,2,5,5)"><path
       class="st0"
       d="m 81.2,52 c 9,0 16.3,-7.3 16.3,-16.3 0,-9 -7.3,-16.3 -16.3,-16.3 0,0 -0.1,0 -0.1,0 C 80,8.5 70.8,0 59.7,0 52.9,0 46.8,3.2 42.9,8.2 41.4,7.8 39.9,7.5 38.3,7.5 c -7.9,0 -14.4,5.6 -16,13 C 20.5,19.8 18.5,19.4 16.4,19.4 7.3,19.4 0,26.7 0,35.7 0,44.7 7.3,52 16.3,52 l 64.9,0 z"
       id="path7"
       inkscape:connector-curvature="0"
       style="fill:#1c75bc" /><g
       id="g9"><path
         class="st1"
         d="m 40.5,45.2 c -1.7,-0.5 -3.1,-1.6 -4.2,-3.3 -1.1,-1.7 -1.6,-3.7 -1.6,-5.9 0,-3.6 1.6,-7.6 4.8,-11.8 3.3,-4.4 6.7,-6.6 10.1,-6.6 2.4,0 4.3,0.9 5.7,2.6 0.6,0.7 1.3,2.1 2.1,4.1 l 1.8,-4.4 c 0.2,-0.6 0.6,-1 1,-1.3 0.5,-0.3 0.9,-0.5 1.4,-0.5 0.6,0 1.2,0.2 1.7,0.6 0.5,0.4 0.7,0.9 0.7,1.7 0,1.5 -1.3,4.4 -3.9,8.5 -2.6,4.1 -3.9,6.6 -3.9,7.3 0,1.4 1.1,2.7 3.3,3.9 1.1,0.6 1.6,1.2 1.6,2.1 0,0.9 -0.6,1.7 -1.7,2.3 -0.9,0.5 -2,0.7 -3,0.7 -0.9,0 -2,-0.4 -3.2,-1.3 -1.2,-0.8 -1.8,-1.7 -1.8,-2.5 -2.2,1.4 -3.5,2.1 -3.8,2.3 -2.1,1.1 -3.9,1.6 -5.5,1.6 -0.3,0 -0.7,0 -1,0 -0.3,0 -0.5,-0.1 -0.6,-0.1 z M 43,30.1 c -0.4,1 -0.7,2.2 -1,3.4 -0.3,1.2 -0.5,2.3 -0.5,3.1 0,1 0.2,1.9 0.6,2.5 0.4,0.6 1.1,1 2.2,1 2.3,0 4.3,-1.7 6.1,-5.2 1.6,-3 2.4,-5.9 2.4,-8.6 0,-1.4 -0.2,-2.4 -0.7,-3.1 -0.5,-0.6 -1.1,-1 -1.8,-1 -1.4,0 -2.8,1 -4.4,3 -1.3,1.6 -2.2,3.2 -2.9,4.9 z"
         id="path11"
         inkscape:connector-curvature="0"
         style="fill:#ffffff" /></g></g></svg>